# xmcd
#
# Track frame offsets:
#	150
#	11230
#	26727
#	38627
#	52712
#	65382
#	80010
#	91704
#	105532
#	118507
#	129670
#	150277
#	163442
#	175745
#	189355
#	203110
#
# Disc length: 2875 seconds
#
# Revision: 2
# Processed by: cddbd v1.5.2PL0 Copyright (c) Steve Scherf et al.
# Submitted via: EZCDAudioConverter 8.2.2.1
#
DISCID=c40b3910
DTITLE=TEODORO and SAMPAIO - PÉROLAS (16 GRANDES SUCESSOS) [CD 6086-2) SOM LIVRE
DYEAR=2000
DGENRE=South America
TTITLE0=O GAVIÃO (BY GILMAR SINISTRO)
TTITLE1=CHEIRINHO DE MULHER (BY GILMAR SINISTRO)
TTITLE2=ESPORA DO AMOR (BY GILMAR SINISTRO)
TTITLE3=A GOSTOSONA (BY GILMAR SINISTRO)
TTITLE4=AMANDO ESCONDIDO (BY GILMAR SINISTRO)
TTITLE5=ÁGUA NO LEITE (BY GILMAR SINISTRO)
TTITLE6=CANTARAM MINHA VIZINHA (BY GILMAR SINISTRO)
TTITLE7=NO MEIO DA CHUVA (BY GILMAR SINISTRO)
TTITLE8=SE A CASA CAIR (BY GILMAR SINISTRO)
TTITLE9=GARANHÃO DA MADRUGADA (BY GILMAR SINISTRO)
TTITLE10=DESAFIO (TEODORO CONTRA SAMPAIO) (BY GILMAR SINISTRO)
TTITLE11=O MACHÃO CHOROU (BY GILMAR SINISTRO)
TTITLE12=VELHO GALÃ (BY GILMAR SINISTRO)
TTITLE13=PAIXÃO VIOLENTA (BY GILMAR SINISTRO)
TTITLE14=CRAVO E CANELA (BY GILMAR SINISTRO)
TTITLE15=TÔ DOIDO PRA ENCONTRAR COM ELA (BY GILMAR SINISTRO)
EXTD=
EXTT0=
EXTT1=
EXTT2=
EXTT3=
EXTT4=
EXTT5=
EXTT6=
EXTT7=
EXTT8=
EXTT9=
EXTT10=
EXTT11=
EXTT12=
EXTT13=
EXTT14=
EXTT15=
PLAYORDER=
